<?xml version="1.0" standalone="no"?>
<!DOCTYPE svg PUBLIC "-//W3C//DTD SVG 20010904//EN"
 "http://www.w3.org/TR/2001/REC-SVG-20010904/DTD/svg10.dtd">
<svg version="1.0" xmlns="http://www.w3.org/2000/svg"
 width="256.000000pt" height="256.000000pt" viewBox="0 0 256.000000 256.000000"
 preserveAspectRatio="xMidYMid meet">

<g transform="translate(0.000000,256.000000) scale(0.100000,-0.100000)"
fill="#000000" stroke="none">
<path d="M1110 2384 c-123 -17 -260 -62 -379 -125 -118 -63 -131 -73 -253
-189 -238 -228 -359 -511 -357 -838 0 -85 19 -235 30 -246 2 -3 31 27 63 66
282 334 724 548 1132 548 l79 0 35 -66 c51 -97 57 -100 114 -64 25 17 49 30
51 30 15 0 94 64 89 72 -10 15 -66 36 -173 65 -81 21 -125 26 -285 30 -291 8
-515 -28 -732 -116 -54 -22 -99 -39 -101 -37 -10 10 180 194 242 235 192 129
380 184 625 183 296 -1 523 -78 631 -215 32 -40 69 -126 69 -159 0 -5 29 -35
63 -68 46 -42 75 -82 103 -136 37 -73 39 -82 39 -168 0 -79 -4 -98 -27 -142
-43 -82 -51 -84 -84 -17 -63 129 -175 201 -329 210 -187 12 -381 -52 -612
-202 -119 -77 -305 -266 -390 -397 -57 -86 -164 -294 -163 -315 1 -17 205
-132 274 -153 46 -15 56 -6 56 54 0 62 47 277 80 367 68 183 173 343 307 469
88 82 122 100 108 58 -17 -54 -17 -227 0 -303 28 -129 84 -226 189 -331 86
-85 229 -187 283 -200 34 -9 118 53 231 170 150 156 233 303 290 515 23 85 26
116 26 271 1 162 -1 183 -28 285 -119 459 -501 799 -970 861 -129 17 -197 16
-326 -2z"/>
</g>
</svg>
